<svg width="48" height="48" viewBox="0 0 48 48" fill="none" xmlns="http://www.w3.org/2000/svg">
<rect width="48" height="48" rx="4" fill="white"/>
<path d="M28.6357 14.8371L26.3214 14.8333C23.7212 14.8333 22.0409 16.6042 22.0409 19.3451V21.4254H19.7139C19.5128 21.4254 19.35 21.5928 19.35 21.7994V24.8135C19.35 25.02 19.513 25.1873 19.7139 25.1873H22.0409V32.7928C22.0409 32.9993 22.2037 33.1666 22.4048 33.1666H25.4409C25.642 33.1666 25.8048 32.9991 25.8048 32.7928V25.1873H28.5256C28.7267 25.1873 28.8896 25.02 28.8896 24.8135L28.8907 21.7994C28.8907 21.7002 28.8522 21.6052 28.7841 21.535C28.716 21.4649 28.6231 21.4254 28.5266 21.4254H25.8048V19.6619C25.8048 18.8143 26.0014 18.384 27.0763 18.384L28.6354 18.3835C28.8363 18.3835 28.9991 18.216 28.9991 18.0096V15.2109C28.9991 15.0047 28.8365 14.8374 28.6357 14.8371Z" fill="#086CF9"/>
</svg>
