<svg width="48" height="48" viewBox="0 0 48 48" fill="none" xmlns="http://www.w3.org/2000/svg">
<rect width="48" height="48" rx="4" fill="white"/>
<path fill-rule="evenodd" clip-rule="evenodd" d="M15.6667 23.9998C15.6667 21.3589 15.6667 20.0384 16.1108 19.0014C16.6671 17.7022 17.7023 16.667 19.0016 16.1106C20.0386 15.6665 21.3591 15.6665 24 15.6665C26.641 15.6665 27.9614 15.6665 28.9984 16.1106C30.2977 16.667 31.3329 17.7022 31.8893 19.0014C32.3334 20.0384 32.3334 21.3589 32.3334 23.9998C32.3334 26.6408 32.3334 27.9613 31.8893 28.9982C31.3329 30.2975 30.2977 31.3327 28.9984 31.8891C27.9614 32.3332 26.641 32.3332 24 32.3332C21.3591 32.3332 20.0386 32.3332 19.0016 31.8891C17.7023 31.3327 16.6671 30.2975 16.1108 28.9982C15.6667 27.9613 15.6667 26.6408 15.6667 23.9998ZM24 19.5883C21.5636 19.5883 19.5883 21.5636 19.5883 24C19.5883 26.4364 21.5636 28.4118 24 28.4118C26.4364 28.4118 28.4118 26.4364 28.4118 24C28.4118 21.5636 26.4364 19.5883 24 19.5883ZM24 26.7574C22.4802 26.7574 21.2427 25.5199 21.2427 24C21.2427 22.4791 22.4802 21.2427 24 21.2427C25.5199 21.2427 26.7574 22.4791 26.7574 24C26.7574 25.5199 25.5199 26.7574 24 26.7574ZM29.3305 19.257C29.3305 19.5817 29.0673 19.8449 28.7426 19.8449C28.418 19.8449 28.1548 19.5817 28.1548 19.257C28.1548 18.9323 28.418 18.6691 28.7426 18.6691C29.0673 18.6691 29.3305 18.9323 29.3305 19.257Z" fill="#086CF9"/>
</svg>
