<svg width="48" height="48" viewBox="0 0 48 48" fill="none" xmlns="http://www.w3.org/2000/svg">
<rect width="48" height="48" rx="4" fill="white"/>
<path d="M32.3292 32.3332V32.3325H32.3333V26.22C32.3333 23.2297 31.6896 20.9263 28.1938 20.9263C26.5132 20.9263 25.3854 21.8485 24.925 22.7228H24.8764V21.2054H21.5618V32.3325H25.0132V26.8228C25.0132 25.3721 25.2882 23.9693 27.0847 23.9693C28.8549 23.9693 28.8813 25.6249 28.8813 26.9159V32.3332H32.3292Z" fill="#086CF9"/>
<path d="M15.9417 21.2063H19.3972V32.3334H15.9417V21.2063Z" fill="#086CF9"/>
<path d="M17.668 15.6667C16.5632 15.6667 15.6667 16.5633 15.6667 17.6681C15.6667 18.773 16.5632 19.6883 17.668 19.6883C18.7729 19.6883 19.6694 18.773 19.6694 17.6681C19.6687 16.5633 18.7722 15.6667 17.668 15.6667V15.6667Z" fill="#086CF9"/>
</svg>
