<svg width="32" height="32" viewBox="0 0 32 32" fill="none" xmlns="http://www.w3.org/2000/svg">
<circle cx="16" cy="16" r="15.7" stroke="#C8C8C8" stroke-width="0.6"/>
<g clip-path="url(#clip0_1_341)">
<path d="M16 16.0206C11.7835 16.0206 8.35309 19.4511 8.35309 23.6675C8.35309 23.8511 8.50205 24 8.68557 24C8.8691 24 9.01806 23.8511 9.01806 23.6675C9.01806 19.8175 12.15 16.6856 16 16.6856C19.8501 16.6856 22.982 19.8175 22.982 23.6675C22.982 23.8511 23.131 24 23.3145 24C23.498 24 23.647 23.8511 23.647 23.6675C23.6469 19.4504 20.2164 16.0206 16 16.0206Z" fill="#086CF9"/>
<path d="M16 8C13.9838 8 12.3428 9.64042 12.3428 11.6572C12.3428 13.674 13.9839 15.3144 16 15.3144C18.0161 15.3144 19.6572 13.674 19.6572 11.6572C19.6572 9.64042 18.0161 8 16 8ZM16 14.6495C14.3502 14.6495 13.0077 13.3069 13.0077 11.6572C13.0077 10.0075 14.3502 8.66494 16 8.66494C17.6497 8.66494 18.9922 10.0075 18.9922 11.6572C18.9922 13.3069 17.6497 14.6495 16 14.6495Z" fill="#086CF9"/>
</g>
<defs>
<clipPath id="clip0_1_341">
<rect width="16" height="16" fill="white" transform="translate(8 8)"/>
</clipPath>
</defs>
</svg>
