<svg width="32" height="32" viewBox="0 0 32 32" fill="none" xmlns="http://www.w3.org/2000/svg">
<path d="M23.9407 15.8107C23.8147 15.6273 20.7867 11.3333 16 11.3333C11.8926 11.3333 8.2325 15.6027 8.07849 15.7847C7.97384 15.9087 7.97384 16.0907 8.07849 16.2153C8.2325 16.3973 11.8926 20.6667 16 20.6667C20.1074 20.6667 23.7674 16.3973 23.9214 16.2153C24.0181 16.1007 24.0267 15.9347 23.9407 15.8107ZM16 20.0001C12.7073 20.0001 9.57652 16.86 8.78119 16C9.5752 15.1393 12.7026 11.9999 16 11.9999C19.8527 11.9999 22.5721 15.1353 23.2361 15.982C22.4694 16.8147 19.3207 20.0001 16 20.0001Z" fill="#086CF9"/>
<path d="M16 13.3333C14.5293 13.3333 13.3333 14.5293 13.3333 16C13.3333 17.4706 14.5293 18.6667 16 18.6667C17.4707 18.6667 18.6667 17.4706 18.6667 16C18.6667 14.5293 17.4707 13.3333 16 13.3333ZM16 18C14.8973 18 14 17.1027 14 16C14 14.8973 14.8973 14 16 14C17.1027 14 18 14.8973 18 16C18 17.1027 17.1027 18 16 18Z" fill="#086CF9"/>
<circle cx="16" cy="16" r="15.7" stroke="#C8C8C8" stroke-width="0.6"/>
</svg>
